<svg xmlns="http://www.w3.org/2000/svg" viewBox="0 0 32 32"><title>file_type_yaml</title><path d="M2,12.218c.755,0,1.51-.008,2.264,0l.053.038Q5.7,13.638,7.078,15.014c.891-.906,1.8-1.794,2.7-2.7.053-.052.11-.113.192-.1.608,0,1.215,0,1.823,0a1.4,1.4,0,0,1,.353.019-.7.67-1.377,1.369-2.069,2.05L5.545,18.8c-.331.324-.648.663-.989.975-.754.022-1.511.007-2.266.007,1.223-1.209,2.431-2.433,3.658-3.637C4.627,14.841,3.318,13.525,2,12.218ZM12.7,12.218h1.839v7.566c-.611,0-1.222.012-1.832-.008v-4.994c-1.6,1.607-3.209,3.2-4.811,4.8-.089.08-.166.217-.305.194H5.117Q8.916,16,12.7,12.218ZM14.958,12.22h1.409c.836.853,1.69,1.689,2.536,2.532q1.268-1.267,2.539-2.532h1.4v7.567h-1.414v-4.773c-.844.843-1.676,1.7-2.526,2.536-.856-.835-1.687-1.695-2.532-2.541v4.781h-1.415ZM23.259,12.217h1.416v6.166h3.782c.063.006.144-.012.191.045.448.454.907.9,1.353,1.354h-6.741Z" fill="#ffe885"/></svg>
